<svg width="67" height="67" viewBox="0 0 67 67" fill="none" xmlns="http://www.w3.org/2000/svg">
<path d="M33.5 0C14.9984 0 0 14.9984 0 33.5C0 52.0016 14.9984 67 33.5 67C52.0016 67 67 52.0016 67 33.5C67 14.9984 52.0016 0 33.5 0ZM54.2365 33.7594C54.2362 33.797 54.2352 33.8347 54.2346 33.8723C54.2336 33.9176 54.233 33.9629 54.232 34.0082C54.2308 34.0634 54.2288 34.1186 54.2272 34.1738C54.2263 34.1997 54.2256 34.2258 54.2247 34.2517C54.2225 34.318 54.2196 34.3841 54.2164 34.4504C54.2158 34.4635 54.2151 34.4763 54.2148 34.4894C54.1051 36.8053 53.6086 39.1063 52.7264 41.2876C52.7226 41.2972 52.7188 41.3065 52.715 41.316C52.6993 41.355 52.6831 41.3936 52.6671 41.4322C52.6489 41.4765 52.6307 41.5205 52.6119 41.5646C52.6071 41.5761 52.602 41.5875 52.5972 41.599C51.6146 43.9134 50.2235 46.0124 48.5144 47.8058C48.4959 47.8252 48.477 47.8444 48.4585 47.8635C48.4196 47.904 48.381 47.9446 48.3418 47.9844C48.2831 48.0447 48.224 48.1044 48.1644 48.1641C48.1041 48.2244 48.0435 48.2843 47.9825 48.3437C47.9509 48.3746 47.9187 48.4053 47.8871 48.4359C47.8587 48.4633 47.83 48.4911 47.8013 48.5185C47.7563 48.5613 47.711 48.6037 47.6657 48.6461C47.6507 48.6602 47.636 48.6742 47.621 48.6879C47.5652 48.7399 47.5091 48.7913 47.4529 48.8427C47.4494 48.8459 47.4459 48.8494 47.4421 48.8526C45.6879 50.4462 43.6598 51.7435 41.4363 52.6649C39.099 53.6316 36.6212 54.1529 34.132 54.2282C34.1174 54.2285 34.1027 54.2292 34.0883 54.2295C34.0293 54.2311 33.9706 54.2323 33.9116 54.2336C33.8825 54.2343 33.8535 54.2349 33.8245 54.2352C33.7731 54.2359 33.7217 54.2365 33.6704 54.2368C33.635 54.2368 33.5995 54.2375 33.5638 54.2375C33.5144 54.2375 33.4652 54.2375 33.4158 54.2375C33.3804 54.2375 33.3449 54.2371 33.3095 54.2368C33.2572 54.2362 33.2052 54.2355 33.1529 54.2349C33.1232 54.2343 33.0939 54.2339 33.0645 54.2333C33.0052 54.232 32.9458 54.2308 32.8868 54.2288C32.868 54.2282 32.8495 54.2276 32.8306 54.2269C32.7601 54.2247 32.6893 54.2221 32.6188 54.2193C32.6169 54.2193 32.6153 54.2193 32.6134 54.2193C30.2278 54.1178 27.8564 53.6064 25.6138 52.6856C25.61 52.684 25.6061 52.6824 25.6023 52.6808C25.5343 52.6527 25.4667 52.6247 25.3987 52.596C25.3557 52.5778 25.3126 52.5589 25.2695 52.5404C25.2411 52.5283 25.2127 52.5159 25.1843 52.5038C23.1865 51.6283 21.3532 50.4469 19.7436 49.0191C19.7366 49.0131 19.7299 49.0067 19.7229 49.0006C19.6693 48.9527 19.6157 48.9049 19.5624 48.8564C19.3713 48.6828 19.1827 48.5048 18.9967 48.3229C18.9431 48.2706 18.8895 48.218 18.8366 48.1647C18.7753 48.1034 18.7144 48.0415 18.6538 47.9797C18.6442 47.9701 18.6349 47.9602 18.6257 47.9506C18.5536 47.8763 18.4821 47.8016 18.4113 47.7263C18.3937 47.7078 18.3762 47.689 18.3586 47.6705C18.3532 47.6648 18.3478 47.6587 18.342 47.6529C18.2725 47.5786 18.2036 47.5036 18.1353 47.4287C16.6361 45.7757 15.3998 43.8799 14.4927 41.807C14.4924 41.8061 14.4918 41.8048 14.4915 41.8039C14.464 41.741 14.4369 41.6778 14.4101 41.6143C14.4012 41.5933 14.3922 41.5722 14.3833 41.5512C14.3661 41.51 14.3488 41.4685 14.3319 41.4274C14.3144 41.3846 14.2965 41.3422 14.2793 41.2994C14.2726 41.2825 14.2659 41.2656 14.2589 41.2487C13.4124 39.1433 12.9249 36.9275 12.797 34.6948C12.797 34.6926 12.797 34.69 12.7967 34.6878C12.7925 34.6157 12.789 34.5433 12.7855 34.4712C12.7846 34.4539 12.7839 34.4364 12.7833 34.4189C12.7807 34.3582 12.7782 34.2973 12.7759 34.2364C12.775 34.2064 12.774 34.1764 12.7731 34.1464C12.7715 34.0957 12.7699 34.0453 12.7689 33.9945C12.768 33.9521 12.7673 33.9093 12.7664 33.8669C12.7657 33.8267 12.7648 33.7865 12.7645 33.7463C12.7638 33.6873 12.7635 33.6286 12.7632 33.5696C12.7632 33.544 12.7629 33.5188 12.7629 33.4933C12.7629 33.4091 12.7635 33.3252 12.7645 33.2416C12.7648 33.2039 12.7657 33.1663 12.7664 33.1286C12.767 33.0833 12.768 33.038 12.7689 32.9927C12.7702 32.9378 12.7721 32.8826 12.7737 32.8278C12.7747 32.8016 12.7753 32.7751 12.7763 32.749C12.7785 32.6829 12.7814 32.6166 12.7846 32.5505C12.7852 32.5374 12.7858 32.5247 12.7862 32.5116C12.7897 32.435 12.7938 32.3581 12.7983 32.2816C12.9291 30.0434 13.4214 27.8229 14.2742 25.714C14.278 25.7044 14.2818 25.6945 14.2857 25.6849C14.3013 25.6463 14.3176 25.6077 14.3335 25.5694C14.352 25.5251 14.3702 25.4804 14.389 25.4361C14.3938 25.4249 14.3986 25.4134 14.4034 25.4023C15.3861 23.0876 16.7771 20.9885 18.4866 19.1949C18.5054 19.1751 18.5245 19.1553 18.5437 19.1355C18.582 19.0956 18.6206 19.0554 18.6592 19.0159C18.7179 18.9556 18.7769 18.8959 18.8366 18.8363C18.8962 18.7766 18.9578 18.716 19.0187 18.6563C19.05 18.6257 19.0816 18.5957 19.1132 18.5651C19.1422 18.5373 19.1709 18.5092 19.2 18.4815C19.245 18.4387 19.2899 18.3963 19.3352 18.3542C19.3502 18.3401 19.3649 18.3261 19.3799 18.3121C19.4357 18.2601 19.4919 18.2084 19.5484 18.157C19.5519 18.1538 19.5554 18.1506 19.5586 18.1474C21.3127 16.5538 23.3409 15.2565 25.5643 14.3348C27.9017 13.3681 30.3794 12.8468 32.8686 12.7715C32.8833 12.7712 32.898 12.7705 32.9123 12.7702C32.9713 12.7686 33.03 12.7673 33.0891 12.7661C33.1181 12.7654 33.1471 12.7648 33.1762 12.7645C33.2275 12.7638 33.2789 12.7632 33.3303 12.7629C33.3657 12.7629 33.4011 12.7622 33.4368 12.7622C33.4863 12.7622 33.5354 12.7622 33.5849 12.7622C33.6203 12.7622 33.6557 12.7625 33.6911 12.7629C33.7431 12.7632 33.7954 12.7641 33.8474 12.7648C33.8771 12.7654 33.9068 12.7657 33.9365 12.7664C33.9955 12.7676 34.0548 12.7689 34.1138 12.7708C34.1327 12.7715 34.1512 12.7721 34.17 12.7728C34.2405 12.775 34.3113 12.7775 34.3818 12.7804C34.3838 12.7804 34.3854 12.7804 34.3873 12.7804C36.7728 12.8819 39.1443 13.3933 41.3869 14.3141C41.3907 14.3157 41.3945 14.3173 41.3983 14.3189C41.4663 14.3469 41.5339 14.375 41.6019 14.4037C41.645 14.4219 41.688 14.4407 41.7311 14.4592C41.7595 14.4714 41.7879 14.4838 41.8163 14.4959C43.8142 15.3714 45.6474 16.5528 47.257 17.9806C47.2643 17.9869 47.2717 17.9936 47.2787 18C47.332 18.0476 47.3853 18.0951 47.4382 18.1433C47.6293 18.3168 47.8179 18.4949 48.0039 18.677C48.0575 18.7294 48.1111 18.782 48.1641 18.8353C48.2256 18.8969 48.2863 18.9584 48.3469 19.0207C48.3561 19.0302 48.3654 19.0401 48.375 19.0497C48.4471 19.124 48.5188 19.199 48.5897 19.2743C48.6072 19.2928 48.6248 19.3116 48.6423 19.3301C48.6477 19.3359 48.6532 19.3416 48.6586 19.3477C48.7281 19.422 48.7971 19.497 48.8653 19.572C50.3645 21.225 51.6008 23.1207 52.5079 25.1936C52.5082 25.1946 52.5089 25.1958 52.5092 25.1968C52.5366 25.2596 52.5637 25.3228 52.5905 25.3863C52.5995 25.4074 52.6084 25.4284 52.6173 25.4495C52.6346 25.4906 52.6518 25.5321 52.6687 25.5733C52.6862 25.616 52.7041 25.6588 52.7213 25.7015C52.728 25.7184 52.7347 25.735 52.7414 25.7519C53.5879 27.8573 54.0754 30.0731 54.2033 32.3061C54.2033 32.3084 54.2033 32.3109 54.2036 32.3131C54.2078 32.3852 54.2113 32.4577 54.2148 32.5301C54.2154 32.5473 54.2164 32.5646 54.217 32.5818C54.2196 32.6427 54.2221 32.7037 54.2244 32.7646C54.2253 32.7946 54.2263 32.8246 54.2272 32.8546C54.2288 32.9053 54.2304 32.956 54.2314 33.0068C54.2324 33.0492 54.233 33.0913 54.2339 33.1337C54.2346 33.1739 54.2355 33.2145 54.2359 33.2547C54.2365 33.313 54.2368 33.3717 54.2368 33.4304C54.2368 33.4563 54.2371 33.4821 54.2371 33.5077C54.2371 33.5916 54.2365 33.6755 54.2355 33.7594H54.2365Z" fill="#0D98BA"/>
<path d="M50.1556 21.6445C51.3896 24.5495 50.8227 28.037 48.4541 30.4059C45.3392 33.5208 40.289 33.5208 37.1742 30.4059C32.1903 25.4221 24.1098 25.4221 19.126 30.4059C15.0792 34.4527 14.3192 40.5404 16.8441 45.3549C15.6101 42.4499 16.177 38.9624 18.5456 36.5935C21.6605 33.4786 26.7107 33.4786 29.8255 36.5935C34.8094 41.5773 42.8899 41.5773 47.8737 36.5935C51.9205 32.5467 52.6805 26.459 50.1556 21.6445Z" fill="#0D98BA"/>
</svg>
